M48
; DRILL file {KiCad 5.1.10-88a1d61d58~90~ubuntu20.04.1} date Tue Aug 10 18:40:46 2021
; FORMAT={-:-/ absolute / metric / decimal}
; #@! TF.CreationDate,2021-08-10T18:40:46-04:00
; #@! TF.GenerationSoftware,Kicad,Pcbnew,5.1.10-88a1d61d58~90~ubuntu20.04.1
FMAT,2
METRIC
T1C0.600
T2C0.700
T3C1.000
T4C1.016
%
G90
G05
T1
X4.826Y27.94
X4.826Y17.78
X5.588Y13.462
X6.096Y22.098
X7.239Y19.304
X7.874Y27.94
X7.874Y11.557
X7.874Y3.937
X10.16Y22.479
X11.176Y27.94
X11.811Y8.763
X13.97Y15.875
X14.986Y24.13
X16.637Y26.035
X18.669Y5.461
X19.177Y13.208
X20.32Y21.59
X20.701Y27.559
X21.59Y24.13
X21.59Y13.208
X22.987Y9.906
T2
X11.545Y5.03
X16.395Y5.03
T4
X2.54Y27.94
X2.54Y25.4
X2.54Y22.86
X2.54Y20.32
X2.54Y17.78
X2.54Y15.24
X2.54Y12.7
X2.54Y10.16
X25.4Y27.94
X25.4Y25.4
X25.4Y22.86
X25.4Y20.32
X25.4Y17.78
X25.4Y15.24
X25.4Y12.7
X25.4Y10.16
T3
X10.345Y2.35G85X10.345Y2.35
G05
X17.595Y2.35G85X17.595Y2.35
G05
T0
M30
