G04 #@! TF.GenerationSoftware,KiCad,Pcbnew,5.1.10-88a1d61d58~90~ubuntu20.04.1*
G04 #@! TF.CreationDate,2021-08-10T18:40:43-04:00*
G04 #@! TF.ProjectId,ESP32-CAM-USB-Flasher,45535033-322d-4434-914d-2d5553422d46,rev?*
G04 #@! TF.SameCoordinates,PX354a940PY6350ce0*
G04 #@! TF.FileFunction,Copper,L1,Top*
G04 #@! TF.FilePolarity,Positive*
%FSLAX46Y46*%
G04 Gerber Fmt 4.6, Leading zero omitted, Abs format (unit mm)*
G04 Created by KiCad (PCBNEW 5.1.10-88a1d61d58~90~ubuntu20.04.1) date 2021-08-10 18:40:43*
%MOMM*%
%LPD*%
G01*
G04 APERTURE LIST*
G04 #@! TA.AperFunction,ComponentPad*
%ADD10O,2.032000X1.727200*%
G04 #@! TD*
G04 #@! TA.AperFunction,ComponentPad*
%ADD11R,2.032000X1.727200*%
G04 #@! TD*
G04 #@! TA.AperFunction,SMDPad,CuDef*
%ADD12R,0.800000X1.900000*%
G04 #@! TD*
G04 #@! TA.AperFunction,SMDPad,CuDef*
%ADD13R,0.400000X1.500000*%
G04 #@! TD*
G04 #@! TA.AperFunction,ComponentPad*
%ADD14O,2.000000X3.000000*%
G04 #@! TD*
G04 #@! TA.AperFunction,ComponentPad*
%ADD15O,1.000000X2.000000*%
G04 #@! TD*
G04 #@! TA.AperFunction,SMDPad,CuDef*
%ADD16R,0.500000X1.600000*%
G04 #@! TD*
G04 #@! TA.AperFunction,SMDPad,CuDef*
%ADD17R,1.400000X1.000000*%
G04 #@! TD*
G04 #@! TA.AperFunction,ViaPad*
%ADD18C,1.400000*%
G04 #@! TD*
G04 #@! TA.AperFunction,Conductor*
%ADD19C,0.400000*%
G04 #@! TD*
G04 #@! TA.AperFunction,Conductor*
%ADD20C,0.250000*%
G04 #@! TD*
G04 #@! TA.AperFunction,Conductor*
%ADD21C,0.254000*%
G04 #@! TD*
G04 #@! TA.AperFunction,Conductor*
%ADD22C,0.050000*%
G04 #@! TD*
G04 APERTURE END LIST*
D10*
G04 #@! TO.P,J3,8*
G04 #@! TO.N,+5V*
X25400000Y10160000D03*
G04 #@! TO.P,J3,7*
G04 #@! TO.N,Net-(J1-Pad1)*
X25400000Y12700000D03*
G04 #@! TO.P,J3,6*
G04 #@! TO.N,N/C*
X25400000Y15240000D03*
G04 #@! TO.P,J3,5*
X25400000Y17780000D03*
G04 #@! TO.P,J3,4*
X25400000Y20320000D03*
G04 #@! TO.P,J3,3*
X25400000Y22860000D03*
G04 #@! TO.P,J3,2*
X25400000Y25400000D03*
D11*
G04 #@! TO.P,J3,1*
X25400000Y27940000D03*
G04 #@! TD*
D10*
G04 #@! TO.P,J1,8*
G04 #@! TO.N,N/C*
X2540000Y10160000D03*
G04 #@! TO.P,J1,7*
X2540000Y12700000D03*
G04 #@! TO.P,J1,6*
G04 #@! TO.N,/GPIO0*
X2540000Y15240000D03*
G04 #@! TO.P,J1,5*
G04 #@! TO.N,Net-(J1-Pad1)*
X2540000Y17780000D03*
G04 #@! TO.P,J1,4*
G04 #@! TO.N,N/C*
X2540000Y20320000D03*
G04 #@! TO.P,J1,3*
G04 #@! TO.N,/URXD*
X2540000Y22860000D03*
G04 #@! TO.P,J1,2*
G04 #@! TO.N,/UTXD*
X2540000Y25400000D03*
D11*
G04 #@! TO.P,J1,1*
G04 #@! TO.N,Net-(J1-Pad1)*
X2540000Y27940000D03*
G04 #@! TD*
G04 #@! TO.P,U1,16*
G04 #@! TO.N,+5V*
G04 #@! TA.AperFunction,SMDPad,CuDef*
G36*
G01*
X15470000Y19535000D02*
X15470000Y19835000D01*
G75*
G02*
X15620000Y19985000I150000J0D01*
G01*
X17270000Y19985000D01*
G75*
G02*
X17420000Y19835000I0J-150000D01*
G01*
X17420000Y19535000D01*
G75*
G02*
X17270000Y19385000I-150000J0D01*
G01*
X15620000Y19385000D01*
G75*
G02*
X15470000Y19535000I0J150000D01*
G01*
G37*
G04 #@! TD.AperFunction*
G04 #@! TO.P,U1,15*
G04 #@! TO.N,N/C*
G04 #@! TA.AperFunction,SMDPad,CuDef*
G36*
G01*
X15470000Y18265000D02*
X15470000Y18565000D01*
G75*
G02*
X15620000Y18715000I150000J0D01*
G01*
X17270000Y18715000D01*
G75*
G02*
X17420000Y18565000I0J-150000D01*
G01*
X17420000Y18265000D01*
G75*
G02*
X17270000Y18115000I-150000J0D01*
G01*
X15620000Y18115000D01*
G75*
G02*
X15470000Y18265000I0J150000D01*
G01*
G37*
G04 #@! TD.AperFunction*
G04 #@! TO.P,U1,14*
G04 #@! TO.N,/RTS*
G04 #@! TA.AperFunction,SMDPad,CuDef*
G36*
G01*
X15470000Y16995000D02*
X15470000Y17295000D01*
G75*
G02*
X15620000Y17445000I150000J0D01*
G01*
X17270000Y17445000D01*
G75*
G02*
X17420000Y17295000I0J-150000D01*
G01*
X17420000Y16995000D01*
G75*
G02*
X17270000Y16845000I-150000J0D01*
G01*
X15620000Y16845000D01*
G75*
G02*
X15470000Y16995000I0J150000D01*
G01*
G37*
G04 #@! TD.AperFunction*
G04 #@! TO.P,U1,13*
G04 #@! TO.N,/DTR*
G04 #@! TA.AperFunction,SMDPad,CuDef*
G36*
G01*
X15470000Y15725000D02*
X15470000Y16025000D01*
G75*
G02*
X15620000Y16175000I150000J0D01*
G01*
X17270000Y16175000D01*
G75*
G02*
X17420000Y16025000I0J-150000D01*
G01*
X17420000Y15725000D01*
G75*
G02*
X17270000Y15575000I-150000J0D01*
G01*
X15620000Y15575000D01*
G75*
G02*
X15470000Y15725000I0J150000D01*
G01*
G37*
G04 #@! TD.AperFunction*
G04 #@! TO.P,U1,12*
G04 #@! TO.N,N/C*
G04 #@! TA.AperFunction,SMDPad,CuDef*
G36*
G01*
X15470000Y14455000D02*
X15470000Y14755000D01*
G75*
G02*
X15620000Y14905000I150000J0D01*
G01*
X17270000Y14905000D01*
G75*
G02*
X17420000Y14755000I0J-150000D01*
G01*
X17420000Y14455000D01*
G75*
G02*
X17270000Y14305000I-150000J0D01*
G01*
X15620000Y14305000D01*
G75*
G02*
X15470000Y14455000I0J150000D01*
G01*
G37*
G04 #@! TD.AperFunction*
G04 #@! TO.P,U1,11*
G04 #@! TA.AperFunction,SMDPad,CuDef*
G36*
G01*
X15470000Y13185000D02*
X15470000Y13485000D01*
G75*
G02*
X15620000Y13635000I150000J0D01*
G01*
X17270000Y13635000D01*
G75*
G02*
X17420000Y13485000I0J-150000D01*
G01*
X17420000Y13185000D01*
G75*
G02*
X17270000Y13035000I-150000J0D01*
G01*
X15620000Y13035000D01*
G75*
G02*
X15470000Y13185000I0J150000D01*
G01*
G37*
G04 #@! TD.AperFunction*
G04 #@! TO.P,U1,10*
G04 #@! TA.AperFunction,SMDPad,CuDef*
G36*
G01*
X15470000Y11915000D02*
X15470000Y12215000D01*
G75*
G02*
X15620000Y12365000I150000J0D01*
G01*
X17270000Y12365000D01*
G75*
G02*
X17420000Y12215000I0J-150000D01*
G01*
X17420000Y11915000D01*
G75*
G02*
X17270000Y11765000I-150000J0D01*
G01*
X15620000Y11765000D01*
G75*
G02*
X15470000Y11915000I0J150000D01*
G01*
G37*
G04 #@! TD.AperFunction*
G04 #@! TO.P,U1,9*
G04 #@! TA.AperFunction,SMDPad,CuDef*
G36*
G01*
X15470000Y10645000D02*
X15470000Y10945000D01*
G75*
G02*
X15620000Y11095000I150000J0D01*
G01*
X17270000Y11095000D01*
G75*
G02*
X17420000Y10945000I0J-150000D01*
G01*
X17420000Y10645000D01*
G75*
G02*
X17270000Y10495000I-150000J0D01*
G01*
X15620000Y10495000D01*
G75*
G02*
X15470000Y10645000I0J150000D01*
G01*
G37*
G04 #@! TD.AperFunction*
G04 #@! TO.P,U1,8*
G04 #@! TA.AperFunction,SMDPad,CuDef*
G36*
G01*
X10520000Y10645000D02*
X10520000Y10945000D01*
G75*
G02*
X10670000Y11095000I150000J0D01*
G01*
X12320000Y11095000D01*
G75*
G02*
X12470000Y10945000I0J-150000D01*
G01*
X12470000Y10645000D01*
G75*
G02*
X12320000Y10495000I-150000J0D01*
G01*
X10670000Y10495000D01*
G75*
G02*
X10520000Y10645000I0J150000D01*
G01*
G37*
G04 #@! TD.AperFunction*
G04 #@! TO.P,U1,7*
G04 #@! TA.AperFunction,SMDPad,CuDef*
G36*
G01*
X10520000Y11915000D02*
X10520000Y12215000D01*
G75*
G02*
X10670000Y12365000I150000J0D01*
G01*
X12320000Y12365000D01*
G75*
G02*
X12470000Y12215000I0J-150000D01*
G01*
X12470000Y11915000D01*
G75*
G02*
X12320000Y11765000I-150000J0D01*
G01*
X10670000Y11765000D01*
G75*
G02*
X10520000Y11915000I0J150000D01*
G01*
G37*
G04 #@! TD.AperFunction*
G04 #@! TO.P,U1,6*
G04 #@! TO.N,/D-*
G04 #@! TA.AperFunction,SMDPad,CuDef*
G36*
G01*
X10520000Y13185000D02*
X10520000Y13485000D01*
G75*
G02*
X10670000Y13635000I150000J0D01*
G01*
X12320000Y13635000D01*
G75*
G02*
X12470000Y13485000I0J-150000D01*
G01*
X12470000Y13185000D01*
G75*
G02*
X12320000Y13035000I-150000J0D01*
G01*
X10670000Y13035000D01*
G75*
G02*
X10520000Y13185000I0J150000D01*
G01*
G37*
G04 #@! TD.AperFunction*
G04 #@! TO.P,U1,5*
G04 #@! TO.N,/D+*
G04 #@! TA.AperFunction,SMDPad,CuDef*
G36*
G01*
X10520000Y14455000D02*
X10520000Y14755000D01*
G75*
G02*
X10670000Y14905000I150000J0D01*
G01*
X12320000Y14905000D01*
G75*
G02*
X12470000Y14755000I0J-150000D01*
G01*
X12470000Y14455000D01*
G75*
G02*
X12320000Y14305000I-150000J0D01*
G01*
X10670000Y14305000D01*
G75*
G02*
X10520000Y14455000I0J150000D01*
G01*
G37*
G04 #@! TD.AperFunction*
G04 #@! TO.P,U1,4*
G04 #@! TO.N,Net-(C1-Pad2)*
G04 #@! TA.AperFunction,SMDPad,CuDef*
G36*
G01*
X10520000Y15725000D02*
X10520000Y16025000D01*
G75*
G02*
X10670000Y16175000I150000J0D01*
G01*
X12320000Y16175000D01*
G75*
G02*
X12470000Y16025000I0J-150000D01*
G01*
X12470000Y15725000D01*
G75*
G02*
X12320000Y15575000I-150000J0D01*
G01*
X10670000Y15575000D01*
G75*
G02*
X10520000Y15725000I0J150000D01*
G01*
G37*
G04 #@! TD.AperFunction*
G04 #@! TO.P,U1,3*
G04 #@! TO.N,/UTXD*
G04 #@! TA.AperFunction,SMDPad,CuDef*
G36*
G01*
X10520000Y16995000D02*
X10520000Y17295000D01*
G75*
G02*
X10670000Y17445000I150000J0D01*
G01*
X12320000Y17445000D01*
G75*
G02*
X12470000Y17295000I0J-150000D01*
G01*
X12470000Y16995000D01*
G75*
G02*
X12320000Y16845000I-150000J0D01*
G01*
X10670000Y16845000D01*
G75*
G02*
X10520000Y16995000I0J150000D01*
G01*
G37*
G04 #@! TD.AperFunction*
G04 #@! TO.P,U1,2*
G04 #@! TO.N,/URXD*
G04 #@! TA.AperFunction,SMDPad,CuDef*
G36*
G01*
X10520000Y18265000D02*
X10520000Y18565000D01*
G75*
G02*
X10670000Y18715000I150000J0D01*
G01*
X12320000Y18715000D01*
G75*
G02*
X12470000Y18565000I0J-150000D01*
G01*
X12470000Y18265000D01*
G75*
G02*
X12320000Y18115000I-150000J0D01*
G01*
X10670000Y18115000D01*
G75*
G02*
X10520000Y18265000I0J150000D01*
G01*
G37*
G04 #@! TD.AperFunction*
G04 #@! TO.P,U1,1*
G04 #@! TO.N,GND*
G04 #@! TA.AperFunction,SMDPad,CuDef*
G36*
G01*
X10520000Y19535000D02*
X10520000Y19835000D01*
G75*
G02*
X10670000Y19985000I150000J0D01*
G01*
X12320000Y19985000D01*
G75*
G02*
X12470000Y19835000I0J-150000D01*
G01*
X12470000Y19535000D01*
G75*
G02*
X12320000Y19385000I-150000J0D01*
G01*
X10670000Y19385000D01*
G75*
G02*
X10520000Y19535000I0J150000D01*
G01*
G37*
G04 #@! TD.AperFunction*
G04 #@! TD*
G04 #@! TO.P,R1,2*
G04 #@! TO.N,/RST*
G04 #@! TA.AperFunction,SMDPad,CuDef*
G36*
G01*
X18380000Y28390001D02*
X18380000Y27489999D01*
G75*
G02*
X18130001Y27240000I-249999J0D01*
G01*
X17429999Y27240000D01*
G75*
G02*
X17180000Y27489999I0J249999D01*
G01*
X17180000Y28390001D01*
G75*
G02*
X17429999Y28640000I249999J0D01*
G01*
X18130001Y28640000D01*
G75*
G02*
X18380000Y28390001I0J-249999D01*
G01*
G37*
G04 #@! TD.AperFunction*
G04 #@! TO.P,R1,1*
G04 #@! TO.N,+5V*
G04 #@! TA.AperFunction,SMDPad,CuDef*
G36*
G01*
X20380000Y28390001D02*
X20380000Y27489999D01*
G75*
G02*
X20130001Y27240000I-249999J0D01*
G01*
X19429999Y27240000D01*
G75*
G02*
X19180000Y27489999I0J249999D01*
G01*
X19180000Y28390001D01*
G75*
G02*
X19429999Y28640000I249999J0D01*
G01*
X20130001Y28640000D01*
G75*
G02*
X20380000Y28390001I0J-249999D01*
G01*
G37*
G04 #@! TD.AperFunction*
G04 #@! TD*
D12*
G04 #@! TO.P,Q2,3*
G04 #@! TO.N,Net-(J1-Pad1)*
X13970000Y24940000D03*
G04 #@! TO.P,Q2,2*
G04 #@! TO.N,GND*
X13020000Y27940000D03*
G04 #@! TO.P,Q2,1*
G04 #@! TO.N,/RST*
X14920000Y27940000D03*
G04 #@! TD*
D13*
G04 #@! TO.P,Q1,6*
G04 #@! TO.N,/RST*
X18400000Y25460000D03*
G04 #@! TO.P,Q1,5*
G04 #@! TO.N,/RTS*
X19050000Y25460000D03*
G04 #@! TO.P,Q1,4*
G04 #@! TO.N,/DTR*
X19700000Y25460000D03*
G04 #@! TO.P,Q1,3*
G04 #@! TO.N,/GPIO0*
X19700000Y22800000D03*
G04 #@! TO.P,Q1,2*
G04 #@! TO.N,/DTR*
X19050000Y22800000D03*
G04 #@! TO.P,Q1,1*
G04 #@! TO.N,/RTS*
X18400000Y22800000D03*
G04 #@! TD*
D14*
G04 #@! TO.P,J2,6*
G04 #@! TO.N,GND*
X10345000Y2350000D03*
D15*
X11545000Y5030000D03*
X16395000Y5030000D03*
D16*
G04 #@! TO.P,J2,1*
G04 #@! TO.N,Net-(F1-Pad2)*
X12670000Y5550000D03*
G04 #@! TO.P,J2,2*
G04 #@! TO.N,/D-*
X13320000Y5550000D03*
G04 #@! TO.P,J2,5*
G04 #@! TO.N,GND*
X15270000Y5550000D03*
G04 #@! TO.P,J2,4*
G04 #@! TO.N,N/C*
X14620000Y5550000D03*
G04 #@! TO.P,J2,3*
G04 #@! TO.N,/D+*
X13970000Y5550000D03*
D14*
G04 #@! TO.P,J2,6*
G04 #@! TO.N,GND*
X17595000Y2350000D03*
D17*
X12270000Y800000D03*
X15670000Y800000D03*
G04 #@! TD*
G04 #@! TO.P,F1,2*
G04 #@! TO.N,Net-(F1-Pad2)*
G04 #@! TA.AperFunction,SMDPad,CuDef*
G36*
G01*
X7169999Y7170000D02*
X8070001Y7170000D01*
G75*
G02*
X8320000Y6920001I0J-249999D01*
G01*
X8320000Y6269999D01*
G75*
G02*
X8070001Y6020000I-249999J0D01*
G01*
X7169999Y6020000D01*
G75*
G02*
X6920000Y6269999I0J249999D01*
G01*
X6920000Y6920001D01*
G75*
G02*
X7169999Y7170000I249999J0D01*
G01*
G37*
G04 #@! TD.AperFunction*
G04 #@! TO.P,F1,1*
G04 #@! TO.N,+5V*
G04 #@! TA.AperFunction,SMDPad,CuDef*
G36*
G01*
X7169999Y9220000D02*
X8070001Y9220000D01*
G75*
G02*
X8320000Y8970001I0J-249999D01*
G01*
X8320000Y8319999D01*
G75*
G02*
X8070001Y8070000I-249999J0D01*
G01*
X7169999Y8070000D01*
G75*
G02*
X6920000Y8319999I0J249999D01*
G01*
X6920000Y8970001D01*
G75*
G02*
X7169999Y9220000I249999J0D01*
G01*
G37*
G04 #@! TD.AperFunction*
G04 #@! TD*
G04 #@! TO.P,C2,2*
G04 #@! TO.N,GND*
G04 #@! TA.AperFunction,SMDPad,CuDef*
G36*
G01*
X13752500Y22065000D02*
X13752500Y21115000D01*
G75*
G02*
X13502500Y20865000I-250000J0D01*
G01*
X12827500Y20865000D01*
G75*
G02*
X12577500Y21115000I0J250000D01*
G01*
X12577500Y22065000D01*
G75*
G02*
X12827500Y22315000I250000J0D01*
G01*
X13502500Y22315000D01*
G75*
G02*
X13752500Y22065000I0J-250000D01*
G01*
G37*
G04 #@! TD.AperFunction*
G04 #@! TO.P,C2,1*
G04 #@! TO.N,+5V*
G04 #@! TA.AperFunction,SMDPad,CuDef*
G36*
G01*
X15827500Y22065000D02*
X15827500Y21115000D01*
G75*
G02*
X15577500Y20865000I-250000J0D01*
G01*
X14902500Y20865000D01*
G75*
G02*
X14652500Y21115000I0J250000D01*
G01*
X14652500Y22065000D01*
G75*
G02*
X14902500Y22315000I250000J0D01*
G01*
X15577500Y22315000D01*
G75*
G02*
X15827500Y22065000I0J-250000D01*
G01*
G37*
G04 #@! TD.AperFunction*
G04 #@! TD*
G04 #@! TO.P,C1,2*
G04 #@! TO.N,Net-(C1-Pad2)*
G04 #@! TA.AperFunction,SMDPad,CuDef*
G36*
G01*
X8349000Y15076500D02*
X7399000Y15076500D01*
G75*
G02*
X7149000Y15326500I0J250000D01*
G01*
X7149000Y16001500D01*
G75*
G02*
X7399000Y16251500I250000J0D01*
G01*
X8349000Y16251500D01*
G75*
G02*
X8599000Y16001500I0J-250000D01*
G01*
X8599000Y15326500D01*
G75*
G02*
X8349000Y15076500I-250000J0D01*
G01*
G37*
G04 #@! TD.AperFunction*
G04 #@! TO.P,C1,1*
G04 #@! TO.N,GND*
G04 #@! TA.AperFunction,SMDPad,CuDef*
G36*
G01*
X8349000Y13001500D02*
X7399000Y13001500D01*
G75*
G02*
X7149000Y13251500I0J250000D01*
G01*
X7149000Y13926500D01*
G75*
G02*
X7399000Y14176500I250000J0D01*
G01*
X8349000Y14176500D01*
G75*
G02*
X8599000Y13926500I0J-250000D01*
G01*
X8599000Y13251500D01*
G75*
G02*
X8349000Y13001500I-250000J0D01*
G01*
G37*
G04 #@! TD.AperFunction*
G04 #@! TD*
D18*
G04 #@! TO.N,GND*
X7874000Y11557000D03*
X18669000Y5461000D03*
X11176000Y27940000D03*
X7874000Y27940000D03*
X10160000Y22479000D03*
X7874000Y3937000D03*
X13970000Y15875000D03*
X19177000Y13208000D03*
X5588000Y13462000D03*
G04 #@! TO.N,+5V*
X11811000Y8763000D03*
X16637000Y26035000D03*
X20701000Y27559000D03*
X22987000Y9906000D03*
G04 #@! TO.N,Net-(J1-Pad1)*
X4826000Y27940000D03*
X21590000Y13208000D03*
X21590000Y24130000D03*
X14986000Y24130000D03*
X4826000Y17780000D03*
G04 #@! TO.N,/URXD*
X6096000Y22098000D03*
G04 #@! TO.N,/UTXD*
X7239000Y19304000D03*
G04 #@! TO.N,/GPIO0*
X20320000Y21590000D03*
G04 #@! TD*
D19*
G04 #@! TO.N,Net-(C1-Pad2)*
X8085000Y15875000D02*
X7874000Y15664000D01*
X11495000Y15875000D02*
X8085000Y15875000D01*
G04 #@! TO.N,Net-(F1-Pad2)*
X12670000Y5550000D02*
X12670000Y7015000D01*
X12670000Y7015000D02*
X12192000Y7493000D01*
X12192000Y7493000D02*
X9779000Y7493000D01*
X8881000Y6595000D02*
X7620000Y6595000D01*
X9779000Y7493000D02*
X8881000Y6595000D01*
G04 #@! TO.N,GND*
X10345000Y2350000D02*
X10345000Y1847000D01*
X11392000Y800000D02*
X12270000Y800000D01*
X10345000Y1847000D02*
X11392000Y800000D01*
X12270000Y800000D02*
X15670000Y800000D01*
X15270000Y5550000D02*
X15270000Y7396000D01*
X15270000Y7396000D02*
X15367000Y7493000D01*
X16637000Y7493000D02*
X18669000Y5461000D01*
X15367000Y7493000D02*
X16637000Y7493000D01*
G04 #@! TO.N,+5V*
X11693000Y8645000D02*
X11811000Y8763000D01*
X7620000Y8645000D02*
X11693000Y8645000D01*
X19780000Y27940000D02*
X20320000Y27940000D01*
X15240000Y21590000D02*
X15240000Y21844000D01*
X16637000Y23241000D02*
X16637000Y26035000D01*
X15240000Y21844000D02*
X16637000Y23241000D01*
X20320000Y27940000D02*
X20701000Y27559000D01*
X15240000Y20890000D02*
X16445000Y19685000D01*
X15240000Y21590000D02*
X15240000Y20890000D01*
X22987000Y25273000D02*
X20701000Y27559000D01*
X22987000Y9906000D02*
X22987000Y25273000D01*
G04 #@! TO.N,Net-(J1-Pad1)*
X14780000Y24130000D02*
X13970000Y24940000D01*
X14986000Y24130000D02*
X14780000Y24130000D01*
X4826000Y25146000D02*
X4826000Y27940000D01*
X4826000Y17780000D02*
X4826000Y25146000D01*
X20955000Y19812000D02*
X21590000Y20447000D01*
X21590000Y20447000D02*
X21590000Y24130000D01*
X20955000Y13843000D02*
X20955000Y19812000D01*
X21590000Y13208000D02*
X20955000Y13843000D01*
X13970000Y24940000D02*
X7826000Y24940000D01*
X7826000Y24940000D02*
X4826000Y27940000D01*
G04 #@! TO.N,/URXD*
X10160000Y18415000D02*
X11495000Y18415000D01*
X6477000Y22098000D02*
X10160000Y18415000D01*
X6096000Y22098000D02*
X6477000Y22098000D01*
G04 #@! TO.N,/UTXD*
X7239000Y19304000D02*
X9398000Y17145000D01*
X9398000Y17145000D02*
X11495000Y17145000D01*
G04 #@! TO.N,/D-*
X13320000Y5550000D02*
X13320000Y12461000D01*
X12446000Y13335000D02*
X11495000Y13335000D01*
X13320000Y12461000D02*
X12446000Y13335000D01*
G04 #@! TO.N,/D+*
X13970000Y5550000D02*
X13970000Y13335000D01*
X12700000Y14605000D02*
X11495000Y14605000D01*
X13970000Y13335000D02*
X12700000Y14605000D01*
D20*
G04 #@! TO.N,/RST*
X18400000Y25460000D02*
X18400000Y26177000D01*
X17780000Y26797000D02*
X17780000Y27940000D01*
X18400000Y26177000D02*
X17780000Y26797000D01*
D19*
X17780000Y27940000D02*
X14920000Y27940000D01*
D20*
G04 #@! TO.N,/RTS*
X16445000Y17145000D02*
X17653000Y17145000D01*
X18400000Y17892000D02*
X18400000Y22800000D01*
X17653000Y17145000D02*
X18400000Y17892000D01*
X18400000Y22800000D02*
X18400000Y23861000D01*
X19050000Y24511000D02*
X19050000Y25460000D01*
X18400000Y23861000D02*
X19050000Y24511000D01*
G04 #@! TO.N,/DTR*
X16445000Y15875000D02*
X17526000Y15875000D01*
X19050000Y17399000D02*
X19050000Y22800000D01*
X17526000Y15875000D02*
X19050000Y17399000D01*
X19050000Y22800000D02*
X19050000Y23749000D01*
X19700000Y24399000D02*
X19700000Y25460000D01*
X19050000Y23749000D02*
X19700000Y24399000D01*
G04 #@! TO.N,/GPIO0*
X19700000Y22210000D02*
X20320000Y21590000D01*
X19700000Y22800000D02*
X19700000Y22210000D01*
G04 #@! TD*
D21*
G04 #@! TO.N,GND*
X6758588Y17720293D02*
X7076785Y17657000D01*
X7263898Y17657000D01*
X7717815Y17203082D01*
X7399000Y17203082D01*
X7164583Y17179994D01*
X6939174Y17111617D01*
X6731437Y17000579D01*
X6549353Y16851147D01*
X6399921Y16669063D01*
X6288883Y16461326D01*
X6220506Y16235917D01*
X6197418Y16001500D01*
X6197418Y15326500D01*
X6220506Y15092083D01*
X6288883Y14866674D01*
X6399921Y14658937D01*
X6510506Y14524188D01*
X6474089Y14456057D01*
X6432519Y14319017D01*
X6418482Y14176500D01*
X6422000Y13897750D01*
X6603750Y13716000D01*
X7747000Y13716000D01*
X7747000Y13736000D01*
X8001000Y13736000D01*
X8001000Y13716000D01*
X9144250Y13716000D01*
X9326000Y13897750D01*
X9329518Y14176500D01*
X9315481Y14319017D01*
X9273911Y14456057D01*
X9237494Y14524188D01*
X9348079Y14658937D01*
X9384994Y14728000D01*
X9568418Y14728000D01*
X9568418Y14455000D01*
X9589585Y14240092D01*
X9652271Y14033443D01*
X9686182Y13970000D01*
X9652271Y13906557D01*
X9589585Y13699908D01*
X9568418Y13485000D01*
X9568418Y13185000D01*
X9589585Y12970092D01*
X9652271Y12763443D01*
X9686182Y12700000D01*
X9652271Y12636557D01*
X9589585Y12429908D01*
X9568418Y12215000D01*
X9568418Y11915000D01*
X9589585Y11700092D01*
X9652271Y11493443D01*
X9686182Y11430000D01*
X9652271Y11366557D01*
X9589585Y11159908D01*
X9568418Y10945000D01*
X9568418Y10645000D01*
X9589585Y10430092D01*
X9652271Y10223443D01*
X9754068Y10032994D01*
X9891064Y9866064D01*
X9981311Y9792000D01*
X8942336Y9792000D01*
X8919647Y9819647D01*
X8737564Y9969079D01*
X8529826Y10080117D01*
X8304418Y10148494D01*
X8070001Y10171582D01*
X7169999Y10171582D01*
X6935582Y10148494D01*
X6710174Y10080117D01*
X6502436Y9969079D01*
X6320353Y9819647D01*
X6170921Y9637564D01*
X6059883Y9429826D01*
X5991506Y9204418D01*
X5968418Y8970001D01*
X5968418Y8319999D01*
X5991506Y8085582D01*
X6059883Y7860174D01*
X6170921Y7652436D01*
X6197541Y7620000D01*
X6170921Y7587564D01*
X6059883Y7379826D01*
X5991506Y7154418D01*
X5968418Y6920001D01*
X5968418Y6269999D01*
X5991506Y6035582D01*
X6059883Y5810174D01*
X6170921Y5602436D01*
X6320353Y5420353D01*
X6502436Y5270921D01*
X6710174Y5159883D01*
X6935582Y5091506D01*
X7169999Y5068418D01*
X8070001Y5068418D01*
X8304418Y5091506D01*
X8529826Y5159883D01*
X8737564Y5270921D01*
X8919647Y5420353D01*
X8942776Y5448535D01*
X9105851Y5464597D01*
X9322061Y5530184D01*
X9521322Y5636691D01*
X9695975Y5780025D01*
X9731892Y5823790D01*
X10254103Y6346000D01*
X10624349Y6346000D01*
X10595345Y6317282D01*
X10460001Y6116886D01*
X10366353Y5893936D01*
X10318000Y5657000D01*
X10318000Y5157000D01*
X11418000Y5157000D01*
X11418000Y5177000D01*
X11468418Y5177000D01*
X11468418Y4883000D01*
X11418000Y4883000D01*
X11418000Y4903000D01*
X10318000Y4903000D01*
X10318000Y4577000D01*
X10217998Y4577000D01*
X10217998Y4390023D01*
X9950133Y4531252D01*
X9801438Y4494139D01*
X9491127Y4356504D01*
X9213630Y4160975D01*
X8979610Y3915066D01*
X8798061Y3628227D01*
X8675960Y3311481D01*
X8618000Y2977000D01*
X8618000Y2477000D01*
X10218000Y2477000D01*
X10218000Y2497000D01*
X10472000Y2497000D01*
X10472000Y2477000D01*
X12072000Y2477000D01*
X12072000Y2977000D01*
X12014040Y3311481D01*
X11986054Y3384080D01*
X12121088Y3439229D01*
X12322817Y3572577D01*
X12494655Y3742718D01*
X12532274Y3798418D01*
X12920000Y3798418D01*
X12995000Y3805805D01*
X13070000Y3798418D01*
X13570000Y3798418D01*
X13645000Y3805805D01*
X13720000Y3798418D01*
X14220000Y3798418D01*
X14295000Y3805805D01*
X14370000Y3798418D01*
X14870000Y3798418D01*
X15055644Y3816702D01*
X15234155Y3870853D01*
X15325742Y3919807D01*
X15445345Y3742718D01*
X15617183Y3572577D01*
X15818912Y3439229D01*
X15953946Y3384080D01*
X15925960Y3311481D01*
X15868000Y2977000D01*
X15868000Y2477000D01*
X17468000Y2477000D01*
X17468000Y2497000D01*
X17722000Y2497000D01*
X17722000Y2477000D01*
X19322000Y2477000D01*
X19322000Y2977000D01*
X19264040Y3311481D01*
X19141939Y3628227D01*
X18960390Y3915066D01*
X18726370Y4160975D01*
X18448873Y4356504D01*
X18138562Y4494139D01*
X17989867Y4531252D01*
X17722002Y4390023D01*
X17722002Y4577000D01*
X17622000Y4577000D01*
X17622000Y4903000D01*
X16522000Y4903000D01*
X16522000Y4883000D01*
X16268000Y4883000D01*
X16268000Y4903000D01*
X16249366Y4903000D01*
X16248000Y5098253D01*
X16248000Y5157000D01*
X16268000Y5157000D01*
X16268000Y6567506D01*
X16522000Y6567506D01*
X16522000Y5157000D01*
X17622000Y5157000D01*
X17622000Y5657000D01*
X17573647Y5893936D01*
X17479999Y6116886D01*
X17344655Y6317282D01*
X17172817Y6487423D01*
X16971088Y6620771D01*
X16747220Y6712201D01*
X16711351Y6715518D01*
X16522000Y6567506D01*
X16268000Y6567506D01*
X16196267Y6623578D01*
X16136782Y6741455D01*
X16048562Y6854261D01*
X15940029Y6947689D01*
X15815355Y7018148D01*
X15679330Y7062931D01*
X15574750Y7077000D01*
X15530649Y7032899D01*
X15398671Y7141212D01*
X15234155Y7229147D01*
X15117000Y7264686D01*
X15117000Y9670803D01*
X15198443Y9627271D01*
X15405092Y9564585D01*
X15620000Y9543418D01*
X17270000Y9543418D01*
X17484908Y9564585D01*
X17691557Y9627271D01*
X17882006Y9729068D01*
X18048936Y9866064D01*
X18185932Y10032994D01*
X18287729Y10223443D01*
X18350415Y10430092D01*
X18371582Y10645000D01*
X18371582Y10945000D01*
X18350415Y11159908D01*
X18287729Y11366557D01*
X18253818Y11430000D01*
X18287729Y11493443D01*
X18350415Y11700092D01*
X18371582Y11915000D01*
X18371582Y12215000D01*
X18350415Y12429908D01*
X18287729Y12636557D01*
X18253818Y12700000D01*
X18287729Y12763443D01*
X18350415Y12970092D01*
X18371582Y13185000D01*
X18371582Y13485000D01*
X18350415Y13699908D01*
X18287729Y13906557D01*
X18253818Y13970000D01*
X18287729Y14033443D01*
X18350415Y14240092D01*
X18371582Y14455000D01*
X18371582Y14755000D01*
X18350415Y14969908D01*
X18301724Y15130420D01*
X18321257Y15154221D01*
X19770784Y16603747D01*
X19808000Y16634289D01*
X19808000Y13899329D01*
X19802452Y13843000D01*
X19808000Y13786671D01*
X19808000Y13786661D01*
X19824597Y13618150D01*
X19890184Y13401940D01*
X19943000Y13303128D01*
X19943000Y13045785D01*
X20006293Y12727588D01*
X20130448Y12427853D01*
X20310692Y12158099D01*
X20540099Y11928692D01*
X20809853Y11748448D01*
X21109588Y11624293D01*
X21427785Y11561000D01*
X21752215Y11561000D01*
X21840000Y11578461D01*
X21840000Y11088209D01*
X21707692Y10955901D01*
X21527448Y10686147D01*
X21403293Y10386412D01*
X21340000Y10068215D01*
X21340000Y9743785D01*
X21403293Y9425588D01*
X21527448Y9125853D01*
X21707692Y8856099D01*
X21937099Y8626692D01*
X22206853Y8446448D01*
X22506588Y8322293D01*
X22824785Y8259000D01*
X23149215Y8259000D01*
X23467412Y8322293D01*
X23767147Y8446448D01*
X24036901Y8626692D01*
X24138310Y8728101D01*
X24236818Y8647257D01*
X24551361Y8479131D01*
X24892660Y8375598D01*
X25158657Y8349400D01*
X25641343Y8349400D01*
X25907340Y8375598D01*
X26248639Y8479131D01*
X26563182Y8647257D01*
X26838882Y8873518D01*
X26968000Y9030849D01*
X26968000Y8067057D01*
X19279332Y1476770D01*
X19322000Y1723000D01*
X19322000Y2223000D01*
X17722000Y2223000D01*
X17722000Y2203000D01*
X17468000Y2203000D01*
X17468000Y2223000D01*
X15868000Y2223000D01*
X15868000Y1916250D01*
X15797000Y1845250D01*
X15797000Y972000D01*
X15543000Y972000D01*
X15543000Y1845250D01*
X15361250Y2027000D01*
X14970000Y2030518D01*
X14827483Y2016481D01*
X14690443Y1974911D01*
X14564146Y1907404D01*
X14453446Y1816554D01*
X14362596Y1705854D01*
X14295089Y1579557D01*
X14253519Y1442517D01*
X14239482Y1300000D01*
X14243000Y1108750D01*
X14379750Y972000D01*
X13560250Y972000D01*
X13697000Y1108750D01*
X13700518Y1300000D01*
X13686481Y1442517D01*
X13644911Y1579557D01*
X13577404Y1705854D01*
X13486554Y1816554D01*
X13375854Y1907404D01*
X13249557Y1974911D01*
X13112517Y2016481D01*
X12970000Y2030518D01*
X12578750Y2027000D01*
X12397000Y1845250D01*
X12397000Y972000D01*
X12143000Y972000D01*
X12143000Y1845250D01*
X12072000Y1916250D01*
X12072000Y2223000D01*
X10472000Y2223000D01*
X10472000Y2203000D01*
X10218000Y2203000D01*
X10218000Y2223000D01*
X8618000Y2223000D01*
X8618000Y1723000D01*
X8660667Y1476770D01*
X972000Y8067055D01*
X972000Y9030849D01*
X1101118Y8873518D01*
X1376818Y8647257D01*
X1691361Y8479131D01*
X2032660Y8375598D01*
X2298657Y8349400D01*
X2781343Y8349400D01*
X3047340Y8375598D01*
X3388639Y8479131D01*
X3703182Y8647257D01*
X3978882Y8873518D01*
X4205143Y9149218D01*
X4373269Y9463761D01*
X4476802Y9805060D01*
X4511760Y10160000D01*
X4476802Y10514940D01*
X4373269Y10856239D01*
X4205143Y11170782D01*
X3992408Y11430000D01*
X4205143Y11689218D01*
X4373269Y12003761D01*
X4476802Y12345060D01*
X4511760Y12700000D01*
X4482066Y13001500D01*
X6418482Y13001500D01*
X6432519Y12858983D01*
X6474089Y12721943D01*
X6541596Y12595646D01*
X6632446Y12484946D01*
X6743146Y12394096D01*
X6869443Y12326589D01*
X7006483Y12285019D01*
X7149000Y12270982D01*
X7565250Y12274500D01*
X7747000Y12456250D01*
X7747000Y13462000D01*
X8001000Y13462000D01*
X8001000Y12456250D01*
X8182750Y12274500D01*
X8599000Y12270982D01*
X8741517Y12285019D01*
X8878557Y12326589D01*
X9004854Y12394096D01*
X9115554Y12484946D01*
X9206404Y12595646D01*
X9273911Y12721943D01*
X9315481Y12858983D01*
X9329518Y13001500D01*
X9326000Y13280250D01*
X9144250Y13462000D01*
X8001000Y13462000D01*
X7747000Y13462000D01*
X6603750Y13462000D01*
X6422000Y13280250D01*
X6418482Y13001500D01*
X4482066Y13001500D01*
X4476802Y13054940D01*
X4373269Y13396239D01*
X4205143Y13710782D01*
X3992408Y13970000D01*
X4205143Y14229218D01*
X4373269Y14543761D01*
X4476802Y14885060D01*
X4511760Y15240000D01*
X4476802Y15594940D01*
X4373269Y15936239D01*
X4205143Y16250782D01*
X4200561Y16256366D01*
X4345588Y16196293D01*
X4663785Y16133000D01*
X4988215Y16133000D01*
X5306412Y16196293D01*
X5606147Y16320448D01*
X5875901Y16500692D01*
X6105308Y16730099D01*
X6285552Y16999853D01*
X6409707Y17299588D01*
X6473000Y17617785D01*
X6473000Y17838588D01*
X6758588Y17720293D01*
G04 #@! TA.AperFunction,Conductor*
D22*
G36*
X6758588Y17720293D02*
G01*
X7076785Y17657000D01*
X7263898Y17657000D01*
X7717815Y17203082D01*
X7399000Y17203082D01*
X7164583Y17179994D01*
X6939174Y17111617D01*
X6731437Y17000579D01*
X6549353Y16851147D01*
X6399921Y16669063D01*
X6288883Y16461326D01*
X6220506Y16235917D01*
X6197418Y16001500D01*
X6197418Y15326500D01*
X6220506Y15092083D01*
X6288883Y14866674D01*
X6399921Y14658937D01*
X6510506Y14524188D01*
X6474089Y14456057D01*
X6432519Y14319017D01*
X6418482Y14176500D01*
X6422000Y13897750D01*
X6603750Y13716000D01*
X7747000Y13716000D01*
X7747000Y13736000D01*
X8001000Y13736000D01*
X8001000Y13716000D01*
X9144250Y13716000D01*
X9326000Y13897750D01*
X9329518Y14176500D01*
X9315481Y14319017D01*
X9273911Y14456057D01*
X9237494Y14524188D01*
X9348079Y14658937D01*
X9384994Y14728000D01*
X9568418Y14728000D01*
X9568418Y14455000D01*
X9589585Y14240092D01*
X9652271Y14033443D01*
X9686182Y13970000D01*
X9652271Y13906557D01*
X9589585Y13699908D01*
X9568418Y13485000D01*
X9568418Y13185000D01*
X9589585Y12970092D01*
X9652271Y12763443D01*
X9686182Y12700000D01*
X9652271Y12636557D01*
X9589585Y12429908D01*
X9568418Y12215000D01*
X9568418Y11915000D01*
X9589585Y11700092D01*
X9652271Y11493443D01*
X9686182Y11430000D01*
X9652271Y11366557D01*
X9589585Y11159908D01*
X9568418Y10945000D01*
X9568418Y10645000D01*
X9589585Y10430092D01*
X9652271Y10223443D01*
X9754068Y10032994D01*
X9891064Y9866064D01*
X9981311Y9792000D01*
X8942336Y9792000D01*
X8919647Y9819647D01*
X8737564Y9969079D01*
X8529826Y10080117D01*
X8304418Y10148494D01*
X8070001Y10171582D01*
X7169999Y10171582D01*
X6935582Y10148494D01*
X6710174Y10080117D01*
X6502436Y9969079D01*
X6320353Y9819647D01*
X6170921Y9637564D01*
X6059883Y9429826D01*
X5991506Y9204418D01*
X5968418Y8970001D01*
X5968418Y8319999D01*
X5991506Y8085582D01*
X6059883Y7860174D01*
X6170921Y7652436D01*
X6197541Y7620000D01*
X6170921Y7587564D01*
X6059883Y7379826D01*
X5991506Y7154418D01*
X5968418Y6920001D01*
X5968418Y6269999D01*
X5991506Y6035582D01*
X6059883Y5810174D01*
X6170921Y5602436D01*
X6320353Y5420353D01*
X6502436Y5270921D01*
X6710174Y5159883D01*
X6935582Y5091506D01*
X7169999Y5068418D01*
X8070001Y5068418D01*
X8304418Y5091506D01*
X8529826Y5159883D01*
X8737564Y5270921D01*
X8919647Y5420353D01*
X8942776Y5448535D01*
X9105851Y5464597D01*
X9322061Y5530184D01*
X9521322Y5636691D01*
X9695975Y5780025D01*
X9731892Y5823790D01*
X10254103Y6346000D01*
X10624349Y6346000D01*
X10595345Y6317282D01*
X10460001Y6116886D01*
X10366353Y5893936D01*
X10318000Y5657000D01*
X10318000Y5157000D01*
X11418000Y5157000D01*
X11418000Y5177000D01*
X11468418Y5177000D01*
X11468418Y4883000D01*
X11418000Y4883000D01*
X11418000Y4903000D01*
X10318000Y4903000D01*
X10318000Y4577000D01*
X10217998Y4577000D01*
X10217998Y4390023D01*
X9950133Y4531252D01*
X9801438Y4494139D01*
X9491127Y4356504D01*
X9213630Y4160975D01*
X8979610Y3915066D01*
X8798061Y3628227D01*
X8675960Y3311481D01*
X8618000Y2977000D01*
X8618000Y2477000D01*
X10218000Y2477000D01*
X10218000Y2497000D01*
X10472000Y2497000D01*
X10472000Y2477000D01*
X12072000Y2477000D01*
X12072000Y2977000D01*
X12014040Y3311481D01*
X11986054Y3384080D01*
X12121088Y3439229D01*
X12322817Y3572577D01*
X12494655Y3742718D01*
X12532274Y3798418D01*
X12920000Y3798418D01*
X12995000Y3805805D01*
X13070000Y3798418D01*
X13570000Y3798418D01*
X13645000Y3805805D01*
X13720000Y3798418D01*
X14220000Y3798418D01*
X14295000Y3805805D01*
X14370000Y3798418D01*
X14870000Y3798418D01*
X15055644Y3816702D01*
X15234155Y3870853D01*
X15325742Y3919807D01*
X15445345Y3742718D01*
X15617183Y3572577D01*
X15818912Y3439229D01*
X15953946Y3384080D01*
X15925960Y3311481D01*
X15868000Y2977000D01*
X15868000Y2477000D01*
X17468000Y2477000D01*
X17468000Y2497000D01*
X17722000Y2497000D01*
X17722000Y2477000D01*
X19322000Y2477000D01*
X19322000Y2977000D01*
X19264040Y3311481D01*
X19141939Y3628227D01*
X18960390Y3915066D01*
X18726370Y4160975D01*
X18448873Y4356504D01*
X18138562Y4494139D01*
X17989867Y4531252D01*
X17722002Y4390023D01*
X17722002Y4577000D01*
X17622000Y4577000D01*
X17622000Y4903000D01*
X16522000Y4903000D01*
X16522000Y4883000D01*
X16268000Y4883000D01*
X16268000Y4903000D01*
X16249366Y4903000D01*
X16248000Y5098253D01*
X16248000Y5157000D01*
X16268000Y5157000D01*
X16268000Y6567506D01*
X16522000Y6567506D01*
X16522000Y5157000D01*
X17622000Y5157000D01*
X17622000Y5657000D01*
X17573647Y5893936D01*
X17479999Y6116886D01*
X17344655Y6317282D01*
X17172817Y6487423D01*
X16971088Y6620771D01*
X16747220Y6712201D01*
X16711351Y6715518D01*
X16522000Y6567506D01*
X16268000Y6567506D01*
X16196267Y6623578D01*
X16136782Y6741455D01*
X16048562Y6854261D01*
X15940029Y6947689D01*
X15815355Y7018148D01*
X15679330Y7062931D01*
X15574750Y7077000D01*
X15530649Y7032899D01*
X15398671Y7141212D01*
X15234155Y7229147D01*
X15117000Y7264686D01*
X15117000Y9670803D01*
X15198443Y9627271D01*
X15405092Y9564585D01*
X15620000Y9543418D01*
X17270000Y9543418D01*
X17484908Y9564585D01*
X17691557Y9627271D01*
X17882006Y9729068D01*
X18048936Y9866064D01*
X18185932Y10032994D01*
X18287729Y10223443D01*
X18350415Y10430092D01*
X18371582Y10645000D01*
X18371582Y10945000D01*
X18350415Y11159908D01*
X18287729Y11366557D01*
X18253818Y11430000D01*
X18287729Y11493443D01*
X18350415Y11700092D01*
X18371582Y11915000D01*
X18371582Y12215000D01*
X18350415Y12429908D01*
X18287729Y12636557D01*
X18253818Y12700000D01*
X18287729Y12763443D01*
X18350415Y12970092D01*
X18371582Y13185000D01*
X18371582Y13485000D01*
X18350415Y13699908D01*
X18287729Y13906557D01*
X18253818Y13970000D01*
X18287729Y14033443D01*
X18350415Y14240092D01*
X18371582Y14455000D01*
X18371582Y14755000D01*
X18350415Y14969908D01*
X18301724Y15130420D01*
X18321257Y15154221D01*
X19770784Y16603747D01*
X19808000Y16634289D01*
X19808000Y13899329D01*
X19802452Y13843000D01*
X19808000Y13786671D01*
X19808000Y13786661D01*
X19824597Y13618150D01*
X19890184Y13401940D01*
X19943000Y13303128D01*
X19943000Y13045785D01*
X20006293Y12727588D01*
X20130448Y12427853D01*
X20310692Y12158099D01*
X20540099Y11928692D01*
X20809853Y11748448D01*
X21109588Y11624293D01*
X21427785Y11561000D01*
X21752215Y11561000D01*
X21840000Y11578461D01*
X21840000Y11088209D01*
X21707692Y10955901D01*
X21527448Y10686147D01*
X21403293Y10386412D01*
X21340000Y10068215D01*
X21340000Y9743785D01*
X21403293Y9425588D01*
X21527448Y9125853D01*
X21707692Y8856099D01*
X21937099Y8626692D01*
X22206853Y8446448D01*
X22506588Y8322293D01*
X22824785Y8259000D01*
X23149215Y8259000D01*
X23467412Y8322293D01*
X23767147Y8446448D01*
X24036901Y8626692D01*
X24138310Y8728101D01*
X24236818Y8647257D01*
X24551361Y8479131D01*
X24892660Y8375598D01*
X25158657Y8349400D01*
X25641343Y8349400D01*
X25907340Y8375598D01*
X26248639Y8479131D01*
X26563182Y8647257D01*
X26838882Y8873518D01*
X26968000Y9030849D01*
X26968000Y8067057D01*
X19279332Y1476770D01*
X19322000Y1723000D01*
X19322000Y2223000D01*
X17722000Y2223000D01*
X17722000Y2203000D01*
X17468000Y2203000D01*
X17468000Y2223000D01*
X15868000Y2223000D01*
X15868000Y1916250D01*
X15797000Y1845250D01*
X15797000Y972000D01*
X15543000Y972000D01*
X15543000Y1845250D01*
X15361250Y2027000D01*
X14970000Y2030518D01*
X14827483Y2016481D01*
X14690443Y1974911D01*
X14564146Y1907404D01*
X14453446Y1816554D01*
X14362596Y1705854D01*
X14295089Y1579557D01*
X14253519Y1442517D01*
X14239482Y1300000D01*
X14243000Y1108750D01*
X14379750Y972000D01*
X13560250Y972000D01*
X13697000Y1108750D01*
X13700518Y1300000D01*
X13686481Y1442517D01*
X13644911Y1579557D01*
X13577404Y1705854D01*
X13486554Y1816554D01*
X13375854Y1907404D01*
X13249557Y1974911D01*
X13112517Y2016481D01*
X12970000Y2030518D01*
X12578750Y2027000D01*
X12397000Y1845250D01*
X12397000Y972000D01*
X12143000Y972000D01*
X12143000Y1845250D01*
X12072000Y1916250D01*
X12072000Y2223000D01*
X10472000Y2223000D01*
X10472000Y2203000D01*
X10218000Y2203000D01*
X10218000Y2223000D01*
X8618000Y2223000D01*
X8618000Y1723000D01*
X8660667Y1476770D01*
X972000Y8067055D01*
X972000Y9030849D01*
X1101118Y8873518D01*
X1376818Y8647257D01*
X1691361Y8479131D01*
X2032660Y8375598D01*
X2298657Y8349400D01*
X2781343Y8349400D01*
X3047340Y8375598D01*
X3388639Y8479131D01*
X3703182Y8647257D01*
X3978882Y8873518D01*
X4205143Y9149218D01*
X4373269Y9463761D01*
X4476802Y9805060D01*
X4511760Y10160000D01*
X4476802Y10514940D01*
X4373269Y10856239D01*
X4205143Y11170782D01*
X3992408Y11430000D01*
X4205143Y11689218D01*
X4373269Y12003761D01*
X4476802Y12345060D01*
X4511760Y12700000D01*
X4482066Y13001500D01*
X6418482Y13001500D01*
X6432519Y12858983D01*
X6474089Y12721943D01*
X6541596Y12595646D01*
X6632446Y12484946D01*
X6743146Y12394096D01*
X6869443Y12326589D01*
X7006483Y12285019D01*
X7149000Y12270982D01*
X7565250Y12274500D01*
X7747000Y12456250D01*
X7747000Y13462000D01*
X8001000Y13462000D01*
X8001000Y12456250D01*
X8182750Y12274500D01*
X8599000Y12270982D01*
X8741517Y12285019D01*
X8878557Y12326589D01*
X9004854Y12394096D01*
X9115554Y12484946D01*
X9206404Y12595646D01*
X9273911Y12721943D01*
X9315481Y12858983D01*
X9329518Y13001500D01*
X9326000Y13280250D01*
X9144250Y13462000D01*
X8001000Y13462000D01*
X7747000Y13462000D01*
X6603750Y13462000D01*
X6422000Y13280250D01*
X6418482Y13001500D01*
X4482066Y13001500D01*
X4476802Y13054940D01*
X4373269Y13396239D01*
X4205143Y13710782D01*
X3992408Y13970000D01*
X4205143Y14229218D01*
X4373269Y14543761D01*
X4476802Y14885060D01*
X4511760Y15240000D01*
X4476802Y15594940D01*
X4373269Y15936239D01*
X4205143Y16250782D01*
X4200561Y16256366D01*
X4345588Y16196293D01*
X4663785Y16133000D01*
X4988215Y16133000D01*
X5306412Y16196293D01*
X5606147Y16320448D01*
X5875901Y16500692D01*
X6105308Y16730099D01*
X6285552Y16999853D01*
X6409707Y17299588D01*
X6473000Y17617785D01*
X6473000Y17838588D01*
X6758588Y17720293D01*
G37*
G04 #@! TD.AperFunction*
D21*
X6975110Y24168787D02*
X7011025Y24125025D01*
X7054784Y24089113D01*
X7054787Y24089110D01*
X7185678Y23981691D01*
X7384938Y23875184D01*
X7601149Y23809597D01*
X7769660Y23793000D01*
X7769668Y23793000D01*
X7826000Y23787452D01*
X7882332Y23793000D01*
X12640147Y23793000D01*
X12690853Y23625845D01*
X12778788Y23461329D01*
X12897130Y23317130D01*
X13041329Y23198788D01*
X13205845Y23110853D01*
X13384356Y23056702D01*
X13526829Y23042670D01*
X13473750Y23042000D01*
X13292000Y22860250D01*
X13292000Y21717000D01*
X13312000Y21717000D01*
X13312000Y21463000D01*
X13292000Y21463000D01*
X13292000Y21443000D01*
X13038000Y21443000D01*
X13038000Y21463000D01*
X12032250Y21463000D01*
X11850500Y21281250D01*
X11846982Y20865000D01*
X11861019Y20722483D01*
X11864102Y20712319D01*
X11803750Y20712000D01*
X11622000Y20530250D01*
X11622000Y19812000D01*
X13015250Y19812000D01*
X13197000Y19993750D01*
X13186012Y20129858D01*
X13183513Y20138000D01*
X13292002Y20138000D01*
X13292002Y20319748D01*
X13473750Y20138000D01*
X13752500Y20134482D01*
X13895017Y20148519D01*
X14032057Y20190089D01*
X14100188Y20226506D01*
X14234937Y20115921D01*
X14442674Y20004883D01*
X14529289Y19978609D01*
X14532269Y19975629D01*
X14518418Y19835000D01*
X14518418Y19535000D01*
X14539585Y19320092D01*
X14602271Y19113443D01*
X14636182Y19050000D01*
X14602271Y18986557D01*
X14539585Y18779908D01*
X14518418Y18565000D01*
X14518418Y18265000D01*
X14539585Y18050092D01*
X14602271Y17843443D01*
X14636182Y17780000D01*
X14602271Y17716557D01*
X14539585Y17509908D01*
X14518418Y17295000D01*
X14518418Y16995000D01*
X14539585Y16780092D01*
X14602271Y16573443D01*
X14636182Y16510000D01*
X14602271Y16446557D01*
X14539585Y16239908D01*
X14518418Y16025000D01*
X14518418Y15725000D01*
X14539585Y15510092D01*
X14602271Y15303443D01*
X14636182Y15240000D01*
X14602271Y15176557D01*
X14539585Y14969908D01*
X14518418Y14755000D01*
X14518418Y14455000D01*
X14523478Y14403625D01*
X13550892Y15376210D01*
X13514975Y15419975D01*
X13400770Y15513700D01*
X13421582Y15725000D01*
X13421582Y16025000D01*
X13400415Y16239908D01*
X13337729Y16446557D01*
X13303818Y16510000D01*
X13337729Y16573443D01*
X13400415Y16780092D01*
X13421582Y16995000D01*
X13421582Y17295000D01*
X13400415Y17509908D01*
X13337729Y17716557D01*
X13303818Y17780000D01*
X13337729Y17843443D01*
X13400415Y18050092D01*
X13421582Y18265000D01*
X13421582Y18565000D01*
X13400415Y18779908D01*
X13337729Y18986557D01*
X13235932Y19177006D01*
X13185496Y19238462D01*
X13186012Y19240142D01*
X13197000Y19376250D01*
X13015250Y19558000D01*
X12787822Y19558000D01*
X12741557Y19582729D01*
X12534908Y19645415D01*
X12320000Y19666582D01*
X11348000Y19666582D01*
X11348000Y19812000D01*
X11368000Y19812000D01*
X11368000Y20530250D01*
X11186250Y20712000D01*
X10522388Y20715514D01*
X10379826Y20701943D01*
X10242650Y20660821D01*
X10116133Y20593727D01*
X10005137Y20503240D01*
X9913926Y20392837D01*
X9875533Y20321570D01*
X7882103Y22315000D01*
X11846982Y22315000D01*
X11850500Y21898750D01*
X12032250Y21717000D01*
X13038000Y21717000D01*
X13038000Y22860250D01*
X12856250Y23042000D01*
X12577500Y23045518D01*
X12434983Y23031481D01*
X12297943Y22989911D01*
X12171646Y22922404D01*
X12060946Y22831554D01*
X11970096Y22720854D01*
X11902589Y22594557D01*
X11861019Y22457517D01*
X11846982Y22315000D01*
X7882103Y22315000D01*
X7694858Y22502245D01*
X7679707Y22578412D01*
X7555552Y22878147D01*
X7375308Y23147901D01*
X7145901Y23377308D01*
X6876147Y23557552D01*
X6576412Y23681707D01*
X6258215Y23745000D01*
X5973000Y23745000D01*
X5973000Y25170897D01*
X6975110Y24168787D01*
G04 #@! TA.AperFunction,Conductor*
D22*
G36*
X6975110Y24168787D02*
G01*
X7011025Y24125025D01*
X7054784Y24089113D01*
X7054787Y24089110D01*
X7185678Y23981691D01*
X7384938Y23875184D01*
X7601149Y23809597D01*
X7769660Y23793000D01*
X7769668Y23793000D01*
X7826000Y23787452D01*
X7882332Y23793000D01*
X12640147Y23793000D01*
X12690853Y23625845D01*
X12778788Y23461329D01*
X12897130Y23317130D01*
X13041329Y23198788D01*
X13205845Y23110853D01*
X13384356Y23056702D01*
X13526829Y23042670D01*
X13473750Y23042000D01*
X13292000Y22860250D01*
X13292000Y21717000D01*
X13312000Y21717000D01*
X13312000Y21463000D01*
X13292000Y21463000D01*
X13292000Y21443000D01*
X13038000Y21443000D01*
X13038000Y21463000D01*
X12032250Y21463000D01*
X11850500Y21281250D01*
X11846982Y20865000D01*
X11861019Y20722483D01*
X11864102Y20712319D01*
X11803750Y20712000D01*
X11622000Y20530250D01*
X11622000Y19812000D01*
X13015250Y19812000D01*
X13197000Y19993750D01*
X13186012Y20129858D01*
X13183513Y20138000D01*
X13292002Y20138000D01*
X13292002Y20319748D01*
X13473750Y20138000D01*
X13752500Y20134482D01*
X13895017Y20148519D01*
X14032057Y20190089D01*
X14100188Y20226506D01*
X14234937Y20115921D01*
X14442674Y20004883D01*
X14529289Y19978609D01*
X14532269Y19975629D01*
X14518418Y19835000D01*
X14518418Y19535000D01*
X14539585Y19320092D01*
X14602271Y19113443D01*
X14636182Y19050000D01*
X14602271Y18986557D01*
X14539585Y18779908D01*
X14518418Y18565000D01*
X14518418Y18265000D01*
X14539585Y18050092D01*
X14602271Y17843443D01*
X14636182Y17780000D01*
X14602271Y17716557D01*
X14539585Y17509908D01*
X14518418Y17295000D01*
X14518418Y16995000D01*
X14539585Y16780092D01*
X14602271Y16573443D01*
X14636182Y16510000D01*
X14602271Y16446557D01*
X14539585Y16239908D01*
X14518418Y16025000D01*
X14518418Y15725000D01*
X14539585Y15510092D01*
X14602271Y15303443D01*
X14636182Y15240000D01*
X14602271Y15176557D01*
X14539585Y14969908D01*
X14518418Y14755000D01*
X14518418Y14455000D01*
X14523478Y14403625D01*
X13550892Y15376210D01*
X13514975Y15419975D01*
X13400770Y15513700D01*
X13421582Y15725000D01*
X13421582Y16025000D01*
X13400415Y16239908D01*
X13337729Y16446557D01*
X13303818Y16510000D01*
X13337729Y16573443D01*
X13400415Y16780092D01*
X13421582Y16995000D01*
X13421582Y17295000D01*
X13400415Y17509908D01*
X13337729Y17716557D01*
X13303818Y17780000D01*
X13337729Y17843443D01*
X13400415Y18050092D01*
X13421582Y18265000D01*
X13421582Y18565000D01*
X13400415Y18779908D01*
X13337729Y18986557D01*
X13235932Y19177006D01*
X13185496Y19238462D01*
X13186012Y19240142D01*
X13197000Y19376250D01*
X13015250Y19558000D01*
X12787822Y19558000D01*
X12741557Y19582729D01*
X12534908Y19645415D01*
X12320000Y19666582D01*
X11348000Y19666582D01*
X11348000Y19812000D01*
X11368000Y19812000D01*
X11368000Y20530250D01*
X11186250Y20712000D01*
X10522388Y20715514D01*
X10379826Y20701943D01*
X10242650Y20660821D01*
X10116133Y20593727D01*
X10005137Y20503240D01*
X9913926Y20392837D01*
X9875533Y20321570D01*
X7882103Y22315000D01*
X11846982Y22315000D01*
X11850500Y21898750D01*
X12032250Y21717000D01*
X13038000Y21717000D01*
X13038000Y22860250D01*
X12856250Y23042000D01*
X12577500Y23045518D01*
X12434983Y23031481D01*
X12297943Y22989911D01*
X12171646Y22922404D01*
X12060946Y22831554D01*
X11970096Y22720854D01*
X11902589Y22594557D01*
X11861019Y22457517D01*
X11846982Y22315000D01*
X7882103Y22315000D01*
X7694858Y22502245D01*
X7679707Y22578412D01*
X7555552Y22878147D01*
X7375308Y23147901D01*
X7145901Y23377308D01*
X6876147Y23557552D01*
X6576412Y23681707D01*
X6258215Y23745000D01*
X5973000Y23745000D01*
X5973000Y25170897D01*
X6975110Y24168787D01*
G37*
G04 #@! TD.AperFunction*
D21*
X12214146Y29497404D02*
X12103446Y29406554D01*
X12012596Y29295854D01*
X11945089Y29169557D01*
X11903519Y29032517D01*
X11889482Y28890000D01*
X11893000Y28248750D01*
X12074750Y28067000D01*
X12893000Y28067000D01*
X12893000Y28087000D01*
X13147000Y28087000D01*
X13147000Y28067000D01*
X13167000Y28067000D01*
X13167000Y27813000D01*
X13147000Y27813000D01*
X13147000Y27793000D01*
X12893000Y27793000D01*
X12893000Y27813000D01*
X12074750Y27813000D01*
X11893000Y27631250D01*
X11889482Y26990000D01*
X11903519Y26847483D01*
X11945089Y26710443D01*
X12012596Y26584146D01*
X12103446Y26473446D01*
X12214146Y26382596D01*
X12340443Y26315089D01*
X12477483Y26273519D01*
X12620000Y26259482D01*
X12695251Y26262383D01*
X12690853Y26254155D01*
X12640147Y26087000D01*
X8301103Y26087000D01*
X6473000Y27915102D01*
X6473000Y28102215D01*
X6409707Y28420412D01*
X6285552Y28720147D01*
X6105308Y28989901D01*
X5875901Y29219308D01*
X5606147Y29399552D01*
X5344332Y29508000D01*
X12233970Y29508000D01*
X12214146Y29497404D01*
G04 #@! TA.AperFunction,Conductor*
D22*
G36*
X12214146Y29497404D02*
G01*
X12103446Y29406554D01*
X12012596Y29295854D01*
X11945089Y29169557D01*
X11903519Y29032517D01*
X11889482Y28890000D01*
X11893000Y28248750D01*
X12074750Y28067000D01*
X12893000Y28067000D01*
X12893000Y28087000D01*
X13147000Y28087000D01*
X13147000Y28067000D01*
X13167000Y28067000D01*
X13167000Y27813000D01*
X13147000Y27813000D01*
X13147000Y27793000D01*
X12893000Y27793000D01*
X12893000Y27813000D01*
X12074750Y27813000D01*
X11893000Y27631250D01*
X11889482Y26990000D01*
X11903519Y26847483D01*
X11945089Y26710443D01*
X12012596Y26584146D01*
X12103446Y26473446D01*
X12214146Y26382596D01*
X12340443Y26315089D01*
X12477483Y26273519D01*
X12620000Y26259482D01*
X12695251Y26262383D01*
X12690853Y26254155D01*
X12640147Y26087000D01*
X8301103Y26087000D01*
X6473000Y27915102D01*
X6473000Y28102215D01*
X6409707Y28420412D01*
X6285552Y28720147D01*
X6105308Y28989901D01*
X5875901Y29219308D01*
X5606147Y29399552D01*
X5344332Y29508000D01*
X12233970Y29508000D01*
X12214146Y29497404D01*
G37*
G04 #@! TD.AperFunction*
G04 #@! TD*
M02*
